<svg xmlns="http://www.w3.org/2000/svg" width="1em" height="1em" viewBox="0 0 24 24" data-astro-cid-axph6235=""> <path d="M0 0h24v24H0z" fill="none" data-astro-cid-axph6235=""></path> <g fill="none" stroke="currentColor" stroke-width="1.5" data-astro-cid-axph6235=""> <circle cx="12" cy="12" r="10" data-astro-cid-axph6235=""></circle> <path d="M14 7a2 2 0 1 1-4 0a2 2 0 0 1 4 0Z" data-astro-cid-axph6235=""></path> <path stroke-linecap="round" d="M18 10s-3.537 1.5-6 1.5S6 10 6 10m6 2v1.452m0 0a3 3 0 0 0 .476 1.623L15 19m-3-5.548a3 3 0 0 1-.476 1.623L9 19" data-astro-cid-axph6235=""></path> </g> </svg>